<svg width="619" height="621" viewBox="0 0 619 621" fill="none" xmlns="http://www.w3.org/2000/svg">
<g style="mix-blend-mode:multiply" opacity="0.15">
<path d="M368.537 116.483L124.646 360.223L375.109 610.532L619 366.792L368.537 116.483Z" fill="#2D3033"/>
</g>
<path d="M255.785 102.23L1 356.858L262.669 618.366L520.5 356.858L255.785 102.23Z" fill="#00A97F"/>
<g opacity="0.9">
<path d="M460.335 572.103L469.441 563.003L448.961 542.536L469.441 522.1L460.335 513L439.855 533.467L419.375 513L410.301 522.1L430.749 542.536L410.301 563.003L419.375 572.103L439.855 551.636L460.335 572.103Z" fill="white"/>
<path d="M112.334 567.003L91.8539 546.536L112.334 526.1L103.228 517L82.7482 537.467L62.2683 517L53.1626 526.1L73.6425 546.536L53.1626 567.003L62.2683 576.103L82.7482 555.636L103.228 576.103L112.334 567.003Z" fill="white"/>
</g>
<g opacity="0.95">
<path opacity="0.9" d="M270.376 24.5244C270.376 24.5244 270.495 24.5244 270.562 24.5244C297.038 24.5244 318.625 45.9041 318.71 72.2461C318.744 85.0302 313.787 97.0742 304.719 106.141C295.651 115.207 283.589 120.22 270.715 120.271C265.944 120.271 262.087 124.139 262.103 128.883C262.103 133.61 265.978 137.445 270.748 137.445H270.782C288.258 137.395 304.668 130.565 316.984 118.252C329.3 105.922 336.05 89.5719 336 72.1956C335.881 36.4002 306.563 7.34999 270.579 7.34999H270.376C265.605 7.34999 261.748 11.2189 261.765 15.9624C261.765 20.6892 265.639 24.5244 270.41 24.5244H270.376Z" fill="white"/>
<g opacity="0.9">
<path d="M215.91 53.7861C230.754 53.7861 242.819 41.7282 242.819 26.893C242.819 12.0579 230.754 -1.52588e-05 215.91 -1.52588e-05C201.065 -1.52588e-05 189 12.0579 189 26.893C189 41.7282 201.065 53.7861 215.91 53.7861ZM215.91 9.58151C225.451 9.58151 233.209 17.3347 233.209 26.8699C233.209 36.4051 225.451 44.1583 215.91 44.1583C206.369 44.1583 198.611 36.4051 198.611 26.8699C198.611 17.3347 206.369 9.58151 215.91 9.58151Z" fill="white"/>
<path d="M215.91 89.67C201.065 89.67 189 101.728 189 116.563C189 131.398 201.065 143.456 215.91 143.456C230.754 143.456 242.819 131.398 242.819 116.563C242.819 101.728 230.754 89.67 215.91 89.67ZM215.91 133.875C206.369 133.875 198.611 126.121 198.611 116.586C198.611 107.051 206.369 99.2978 215.91 99.2978C225.451 99.2978 233.209 107.051 233.209 116.586C233.209 126.121 225.451 133.875 215.91 133.875Z" fill="white"/>
</g>
</g>
<mask id="mask0_123_11" style="mask-type:alpha" maskUnits="userSpaceOnUse" x="0" y="103" width="520" height="518">
<path d="M254.785 103.962L0 358.59L261.669 620.098L519.5 358.59L254.785 103.962Z" fill="#00A97F"/>
</mask>
<g mask="url(#mask0_123_11)">
<path d="M404.459 584.298C408.431 574.696 403.733 561.266 402.122 551.776C398.876 532.639 392.294 513.978 381.718 497.626C374.297 486.144 365.06 475.84 354.166 467.551C330.881 449.795 297.746 434.259 267.969 434.667C252.241 434.893 236.218 435.618 220.854 439.242C194.05 445.538 169.154 460.213 150.748 480.641C129.346 504.398 117.113 535.425 115.888 567.245C115.343 574.967 114.185 581.92 115.91 590.39C117.68 599.132 127.871 599.585 134.884 600.831C156.444 604.658 178.459 607.036 200.224 609.21C222.76 611.452 245.455 612.698 268.105 611.475C292.14 610.161 316.038 606.9 339.845 603.526C352.85 601.691 365.968 600.378 378.813 597.524C387.029 595.69 398.853 594.444 403.574 586.065C403.892 585.498 404.187 584.91 404.436 584.298H404.459Z" fill="#231F20"/>
<path d="M281.11 605.202C236.173 607.783 191.418 604.952 145.959 597.796C138.583 596.641 128.665 596.505 123.808 590.526C117.249 582.486 120.676 567.765 122.061 557.869C125.329 534.542 133.862 511.872 147.843 492.803C156.195 481.411 166.407 471.446 178.05 463.429C179.843 462.206 181.659 461.006 183.497 459.873C192.779 454.144 202.765 449.569 213.183 446.33C227.163 441.982 241.597 440.465 256.168 439.853C271.986 439.174 286.67 439.513 301.626 445.379C328.452 455.91 355.051 469.544 372.686 493.006C383.352 507.206 390.638 523.648 394.927 540.815C397.106 549.58 398.513 558.548 399.262 567.562C399.67 572.499 401.849 579.519 398.853 584.026C395.858 588.533 388.05 589.19 383.171 590.322C372.776 592.746 362.268 594.557 351.806 596.528C328.135 600.989 304.622 603.82 281.178 605.156L281.11 605.202Z" fill="white"/>
<path d="M342.614 509.426C341.184 500.525 340.208 491.534 340.14 482.498C340.118 478.58 340.231 474.685 340.572 470.767C340.912 466.826 342.138 462.478 341.139 458.537C339.505 452.06 330.971 448.051 325.593 445.13C318.239 441.144 310.387 438.2 302.262 436.252C300.446 435.822 299.833 437.135 299.175 438.517C296.928 443.341 293.774 447.87 290.823 452.286C287.623 457.065 284.242 461.73 280.656 466.237C274.551 473.869 267.311 482.634 257.348 485.035C243.277 488.409 232.292 478.218 224.757 467.619C221.761 463.406 219.106 458.945 216.564 454.438C215.384 452.354 214.226 450.248 213.046 448.142C211.889 446.081 210.913 443.748 209.052 442.208C205.988 439.672 199.747 443.16 196.547 444.315C191.917 445.99 187.378 447.938 182.975 450.158C177.642 452.853 172.467 456.091 171.536 462.478C170.924 466.668 172.036 471.084 172.49 475.228C172.966 479.622 173.352 484.038 173.624 488.454C174.192 497.604 174.283 506.776 173.919 515.948C172.717 546.25 165.363 576.53 168.2 606.923C168.541 610.456 172.603 610.728 175.213 611.973C175.304 612.018 175.372 612.064 175.417 612.132C178.572 613.264 181.999 613.762 185.335 614.306C192.802 615.506 200.269 616.525 207.781 617.341C224.19 619.152 240.712 620.013 257.211 619.968C274.619 619.922 292.003 618.631 309.252 616.457C318.058 615.348 326.841 614.011 335.579 612.494C339.959 611.747 344.339 610.931 348.719 610.093C351.602 609.55 357.502 609.799 357.911 605.949C358.183 603.344 357.638 600.672 357.57 598.068C357.48 593.765 357.185 589.462 356.776 585.181C355.936 576.598 354.507 568.105 352.827 559.658C349.514 542.899 345.27 526.321 342.546 509.448L342.614 509.426Z" fill="#231F20"/>
<path d="M352.441 603.979C348.129 607.942 313.405 611.43 308.616 612.018C292.798 613.921 276.866 614.985 260.934 615.144C245.66 615.302 230.363 614.691 215.134 613.264C207.441 612.539 199.747 611.633 192.098 610.501C185.925 609.595 179.139 609.573 173.783 605.926C173.488 605.722 173.193 605.519 173.012 605.224C171.854 603.277 172.49 598.589 172.444 596.392C172.376 592.859 172.399 589.326 172.535 585.793C172.785 578.84 173.352 571.91 174.056 565.002C175.463 551.165 177.415 537.373 178.345 523.49C179.457 507.093 179.071 490.606 177.188 474.277C176.756 470.586 175.44 465.898 176.439 462.183C177.46 458.311 181.341 456.363 184.632 454.687C191.576 451.131 198.862 448.346 206.328 446.172C216.814 464.04 230.249 493.595 255.691 490.198C266.721 488.726 275.073 480.482 281.859 472.307C289.847 462.682 296.906 452.309 303.124 441.461C310.069 443.295 316.764 445.855 323.096 449.297C326.41 451.109 329.723 453.079 332.742 455.344C337.78 459.171 336.373 463.678 335.828 469.091C334.285 484.672 336.01 500.344 338.756 515.699C343.976 544.914 352.419 573.246 352.827 603.141C352.827 603.412 352.668 603.684 352.396 603.956L352.441 603.979Z" fill="#231F20"/>
<mask id="mask1_123_11" style="mask-type:luminance" maskUnits="userSpaceOnUse" x="172" y="441" width="181" height="175">
<path d="M352.441 603.979C348.129 607.942 313.405 611.43 308.616 612.018C292.798 613.921 276.866 614.985 260.934 615.144C245.66 615.302 230.363 614.691 215.134 613.264C207.441 612.539 199.747 611.633 192.098 610.501C185.925 609.595 179.139 609.573 173.783 605.926C173.488 605.722 173.193 605.519 173.012 605.224C171.854 603.277 172.49 598.589 172.444 596.392C172.376 592.859 172.399 589.326 172.535 585.793C172.785 578.84 173.352 571.91 174.056 565.002C175.463 551.165 177.415 537.373 178.345 523.49C179.457 507.093 179.071 490.606 177.188 474.277C176.756 470.586 175.44 465.898 176.439 462.183C177.46 458.311 181.341 456.363 184.632 454.687C191.576 451.131 198.862 448.346 206.328 446.172C216.814 464.04 230.249 493.595 255.691 490.198C266.721 488.726 275.073 480.482 281.859 472.307C289.847 462.682 296.906 452.309 303.124 441.461C310.069 443.295 316.764 445.855 323.096 449.297C326.41 451.109 329.723 453.079 332.742 455.344C337.78 459.171 336.373 463.678 335.828 469.091C334.285 484.672 336.01 500.344 338.756 515.699C343.976 544.914 352.419 573.246 352.827 603.141C352.827 603.412 352.668 603.684 352.396 603.956L352.441 603.979Z" fill="white"/>
</mask>
<g mask="url(#mask1_123_11)">
<path d="M360.316 538.845C359.794 538.664 359.318 538.392 358.887 538.029C357.185 536.965 355.505 535.425 353.916 534.179C351.238 532.096 348.583 529.99 345.95 527.861C340.435 523.422 334.966 518.915 329.564 514.34C327.522 512.619 324.163 512.596 322.733 515.224C318.625 522.833 314.517 530.42 310.409 538.029C309.524 539.66 308.639 541.291 307.777 542.921C307.119 544.167 306.279 546.907 305.144 547.813C304.917 548.13 304.736 548.357 304.622 548.56C304.214 547.904 303.805 547.224 303.419 546.545C302.784 545.412 302.194 544.257 301.604 543.08C296.543 532.956 292.367 522.267 281.019 517.919C279.725 517.42 277.66 517.941 276.798 519.028C271.26 525.958 265.745 532.911 260.207 539.841C259.027 541.336 257.847 542.831 256.644 544.303C254.897 546.477 255.033 547.36 253.194 544.982C250.834 541.925 248.701 538.686 246.295 535.651C243.935 532.685 241.484 529.808 238.896 527.023C236.695 524.645 234.357 521.565 231.293 520.251C223.849 517.103 220.218 526.706 217.177 531.643C214.907 535.312 212.66 539.003 210.391 542.672C208.78 545.254 206.941 549.557 203.968 546.069C199.111 540.339 194.754 534.338 189.534 528.903C184.972 524.147 180.024 520.749 174.396 526.185C168.336 532.028 162.799 538.55 157.057 544.71C153.244 548.787 159.372 554.924 163.207 550.848L171.877 541.585L176.824 536.286C177.21 535.878 179.888 532.254 180.546 532.322C181.681 532.436 183.815 535.47 184.586 536.286C185.766 537.531 186.924 538.799 188.059 540.09C190.85 543.261 193.483 546.545 196.025 549.897C199.452 554.381 204.059 558.503 210.028 555.649C216.337 552.637 219.809 543.963 223.236 538.414C224.371 536.58 225.506 534.746 226.641 532.911C227.299 531.869 227.934 530.805 228.593 529.763C228.683 529.673 228.729 529.582 228.82 529.491C229.046 529.65 229.342 529.831 229.773 530.035C230.59 530.873 231.407 531.711 232.201 532.549C233.608 534.043 234.97 535.561 236.286 537.101C239.101 540.362 241.733 543.737 244.23 547.247C246.068 549.851 247.793 552.818 250.63 554.449C257.688 558.457 261.932 551.595 265.768 546.771C270.874 540.362 276.003 533.93 281.11 527.521C286.057 530.601 288.781 536.467 291.254 541.562C293.683 546.545 296.179 554.97 301.649 557.416C309.456 560.903 313.36 550.916 316.151 545.73L327.794 524.192C334.852 530.08 341.979 535.855 349.241 541.494C353.576 544.846 363.585 552.614 367.375 544.054C369.485 539.298 362.972 535.108 360.316 538.89V538.845Z" fill="white"/>
<path d="M363.448 577.866C355.823 571.616 347.426 566.475 338.166 562.987C333.899 561.379 329.769 560.994 326.046 563.961C322.279 566.95 319.783 572.046 317.105 575.941C315.561 578.206 314.109 580.584 312.407 582.735C310.046 585.702 308.344 584.457 305.961 582.169C301.694 578.07 297.45 573.948 293.184 569.826C290.279 567.018 287.215 563.213 282.948 562.602C278.772 561.99 275.436 564.414 273.098 567.675C270.352 571.48 268.241 575.851 265.881 579.904C264.724 581.897 263.68 584.343 262.159 586.11C259.731 588.918 257.847 587.537 255.396 585.385C249.268 579.972 245.796 572.227 239.895 566.588C233.994 560.971 225.551 557.348 219.446 564.685C216.36 568.4 214.113 572.974 211.594 577.074C210.323 579.134 209.097 581.218 207.804 583.256C207.372 583.958 206.328 586.359 205.466 586.653C204.535 586.97 203.764 585.566 202.969 584.706C198.499 579.837 194.073 574.899 189.625 570.008C186.583 566.656 183.179 562.625 178.254 562.443C173.579 562.285 170.288 565.863 167.474 569.079C163.48 573.608 160.053 578.568 157.125 583.845C154.401 588.737 161.914 593.108 164.637 588.216C166.929 584.094 169.494 580.131 172.535 576.485C173.783 574.99 175.735 571.933 177.641 571.525C179.684 571.095 181.568 573.993 182.861 575.42C186.266 579.134 189.647 582.894 193.029 586.631C195.775 589.643 198.816 594.467 203.015 595.576C211.707 597.864 216.587 585.544 220.059 579.904C221.489 577.572 224.984 569.034 228.366 569.079C231.747 569.124 235.855 574.741 237.693 577.096C242.278 582.917 246.023 589.484 252.173 593.855C259.345 598.951 265.949 596.233 270.443 589.326C272.962 585.453 275.118 581.286 277.433 577.3C278.25 575.896 279.294 572.838 280.747 571.933C282.903 570.596 285.649 574.605 287.056 575.964C290.869 579.655 294.681 583.324 298.494 587.016C301.354 589.779 304.304 593.266 308.503 593.787C317.99 594.965 323.936 581.309 328.248 574.99C330.222 572.091 331.266 570.121 335.102 571.049C337.848 571.706 340.64 573.337 343.113 574.628C348.174 577.255 352.918 580.38 357.321 583.981C361.61 587.491 367.783 581.399 363.471 577.844L363.448 577.866Z" fill="white"/>
</g>
<path d="M177.665 357.1C172.104 357.235 166.453 360.089 162.867 364.188C159.599 367.925 157.67 372.794 157.556 377.754C157.329 389.485 166.408 399.677 178.368 399.745C189.262 399.812 198.499 390.119 197.455 379.203C196.956 373.949 194.868 368.74 191.622 364.551C189.988 362.444 188.014 360.565 185.721 359.183C183.225 357.666 180.456 357.032 177.642 357.1H177.665Z" fill="#231F20"/>
<path d="M192.643 379.543C193.415 388.081 186.153 395.328 177.642 394.875C169.222 394.422 163.412 387.696 162.822 379.52C162.527 375.217 163.707 370.688 166.453 367.291C169.199 363.916 173.67 362.127 177.982 362.15C182.794 362.195 186.311 364.8 188.876 368.74C190.964 371.956 192.303 375.716 192.643 379.543Z" fill="white"/>
<path d="M331.244 353.657C326.455 350.849 320.146 350.305 314.926 351.913C310.183 353.385 305.961 356.488 303.261 360.655C296.861 370.507 299.221 383.937 309.343 390.301C318.58 396.076 331.539 392.701 336.396 382.85C338.756 378.116 339.732 372.59 339.165 367.336C338.892 364.686 338.189 362.059 336.986 359.681C335.67 357.077 333.65 355.084 331.221 353.68L331.244 353.657Z" fill="#231F20"/>
<path d="M332.129 380.63C328.294 388.308 318.262 390.64 311.272 385.794C304.35 380.992 302.966 372.205 306.778 364.958C308.798 361.131 312.203 357.915 316.333 356.488C320.441 355.061 325.207 355.877 328.838 358.187C332.924 360.746 334.512 364.8 334.626 369.51C334.716 373.338 333.854 377.233 332.129 380.653V380.63Z" fill="white"/>
<path d="M321.008 307.23C319.669 288.954 315.743 270.586 307.073 254.303C297.814 236.932 282.767 223.05 263.453 217.909C246.068 213.289 227.277 214.421 211.73 223.321C210.732 223.865 210.096 224.046 209.256 224.476C176.189 241.53 168.768 283.948 169.676 317.602C170.311 341.473 174.669 367.064 188.808 386.926C192.553 392.18 197.046 396.846 202.153 400.786C204.695 402.734 207.373 404.5 210.142 406.086C212.434 407.399 215.929 408.011 216.928 410.774C217.268 411.702 217.336 412.721 217.427 413.695C217.835 419.153 218.312 424.634 218.516 430.092C218.766 436.479 218.017 442.933 218.312 449.297C218.312 449.727 218.357 450.067 218.493 450.384C218.516 450.86 218.698 451.358 219.084 451.811C227.435 461.866 241.756 465.354 254.284 464.403C279.453 462.478 291.55 450.633 291.278 448.935C289.984 440.963 289.28 432.9 288.985 424.815C288.849 420.784 288.804 416.73 288.872 412.699C288.895 410.683 288.963 408.668 289.031 406.629C289.144 403.663 288.826 401.964 291.391 400.13C293.819 398.386 296.134 396.461 298.29 394.4C304.622 388.353 309.615 381.083 312.952 372.975C321.304 352.751 322.552 328.745 320.986 307.185L321.008 307.23Z" fill="#231F20"/>
<path d="M313.156 355.877C309.593 372.454 301.854 386.7 288.395 396.506C287.669 397.276 287.034 398.091 286.466 398.929C286.012 399.654 285.649 400.424 285.331 401.194C284.787 403.549 284.401 405.927 284.242 408.351C284.242 408.464 284.197 408.554 284.151 408.622C283.629 421.78 284.378 434.893 286.33 447.938C277.138 454.959 265.927 459.081 254.352 459.602C243.277 460.1 230.84 457.699 223.191 449.138C222.193 448.029 223.486 440.351 223.486 438.653C223.486 434.984 223.441 431.315 223.282 427.669C223.01 421.599 223.237 414.828 220.355 409.166C217.109 402.825 210.369 401.194 205.035 397.185C199.566 393.086 194.845 388.058 191.077 382.351C181.046 367.11 177.029 348.494 175.327 330.579C172.172 297.424 175.894 252.016 206.442 231.814C207.804 230.795 208.303 230.455 209.256 229.776C223.191 219.992 240.508 218.384 257.257 221.487C273.938 224.59 288.1 234.328 297.7 248.188C307.142 261.799 312.248 277.992 314.767 294.253C317.899 314.5 317.468 335.879 313.156 355.922V355.877Z" fill="white"/>
<path d="M297.678 248.166C288.055 234.305 273.916 224.567 257.234 221.464C240.485 218.362 223.146 219.97 209.234 229.753C208.258 230.433 207.781 230.772 206.42 231.791C175.849 251.993 172.15 297.401 175.304 330.557C175.849 336.309 176.643 342.13 177.778 347.882C178.731 347.837 179.684 347.361 180.343 346.319C192.916 326.593 202.766 305.305 209.665 283.043C237.626 287.368 266.245 285.013 293.025 276.044C303.056 294.185 310.864 313.345 316.379 333.274C317.309 320.207 316.764 306.981 314.79 294.208C312.271 277.947 307.164 261.777 297.723 248.143L297.678 248.166Z" fill="#D3DCDF"/>
<path d="M284.151 408.622C284.151 408.622 284.242 408.464 284.242 408.35C284.31 407.173 284.446 406.018 284.628 404.885C270.012 415.122 249.949 415.462 232.451 413.673C230.84 413.514 229.773 415.349 230.114 416.73C234.88 435.301 260.571 450.339 279.204 445.628C281.496 445.039 283.652 444.133 285.626 443.001C284.197 431.587 283.697 420.127 284.128 408.645L284.151 408.622Z" fill="#D3DCDF"/>
<path d="M333.445 272.353C332.197 265.128 330.427 257.995 328.18 251.019C327.113 247.667 325.933 244.338 324.662 241.054C323.823 238.857 323.028 235.891 321.235 234.26C317.423 230.772 310.773 234.328 306.892 236.095C300.923 238.812 295.635 242.662 291.028 247.282C290.71 247.599 290.529 247.939 290.415 248.279C289.28 248.845 288.486 250.181 289.326 251.585C306.983 281.48 312.702 316.153 315.993 350.215C316.22 352.502 319.17 353.612 320.486 351.438C334.762 327.681 338.053 299.371 333.423 272.353H333.445Z" fill="#231F20"/>
<path d="M320.033 342.243C316.583 310.514 310.455 278.672 294.432 250.725C294.432 250.725 294.432 250.725 294.455 250.702C298.404 246.739 302.875 243.387 307.913 240.941C310.16 239.854 313.564 237.861 316.174 237.838C319.533 237.793 320.305 243.025 321.258 245.652C325.502 257.27 328.611 269.386 329.928 281.706C332.152 302.451 329.27 323.581 320.033 342.265V342.243Z" fill="#231F20"/>
<path d="M341.185 217.342C337.69 216.255 334.535 216.912 331.494 218.135C333.128 215.757 334.558 213.243 335.692 210.571C337.667 205.973 339.868 199.995 337.939 195.035C334.444 186.044 324.662 191.23 317.354 197.096C319.17 190.075 318.807 182.783 311.862 178.321C304.35 173.497 298.722 179 293.456 184.119C294.069 179.272 293.456 174.358 289.348 171.21C282.494 165.956 273.938 171.006 269.308 176.622C262.522 184.843 256.599 192.883 247.952 199.36C240.122 205.226 231.316 209.778 221.966 212.722C211.866 215.893 201.063 216.595 191.214 220.649C182.884 224.091 176.008 229.934 170.72 237.159C158.578 253.692 155.786 275.795 155.559 295.77C155.423 307.185 156.558 318.69 159.576 329.741C161.097 335.313 163.117 340.748 165.681 345.912C167.928 350.441 170.788 357.507 175.781 359.342C179.594 360.723 180.116 356.352 181.25 353.589C182.748 349.966 184.155 346.297 185.517 342.605C188.286 335.086 190.782 327.477 192.984 319.754C197.341 304.512 200.587 288.954 202.675 273.236C228.434 278.83 255.373 277.902 280.701 270.564C293.751 266.782 306.347 261.346 317.99 254.348C323.664 250.929 329.179 247.169 334.308 242.934C338.915 239.129 345.27 233.807 347.108 227.851C348.561 223.095 345.814 218.792 341.207 217.342H341.185Z" fill="#231F20"/>
<path d="M342.092 227.375C341.139 230.614 337.054 233.966 334.648 236.23C331.766 238.948 328.657 241.394 325.434 243.704C313.678 252.151 300.628 258.832 286.943 263.543C259.459 273.01 229.614 274.663 201.29 268.005C199.611 267.62 198.431 268.752 198.226 270.337C194.663 299.009 187.151 327.137 175.985 353.793C166.271 339.933 161.732 323.445 160.666 306.641C159.531 288.772 160.87 269.16 167.701 252.469C171.264 243.749 176.847 235.574 184.473 229.912C192.008 224.34 201.018 222.393 210.005 220.558C226.187 217.275 240.916 211.318 253.807 200.833C261.297 194.74 266.63 187.403 272.69 180.02C275.867 176.147 283.902 170.055 287.828 176.645C290.165 180.563 288.304 186.225 287.033 190.211C286.421 192.113 288.849 194.152 290.574 192.929C295.022 189.803 299.992 181.31 305.939 181.378C310.455 181.424 313.224 186.225 313.564 190.211C313.996 195.307 311.431 200.334 309.275 204.773C308.163 207.083 311.136 209.891 313.065 207.695C316.197 204.139 319.647 200.991 323.664 198.477C325.638 197.232 331.017 193.585 333.173 196.235C334.149 197.435 333.809 199.768 333.582 201.195C332.288 209.688 326.955 217.433 320.713 223.072C318.943 224.658 320.804 227.851 323.051 227.103C326.705 225.881 329.882 223.684 333.491 222.37C337.372 220.966 343.885 221.125 342.024 227.421L342.092 227.375Z" fill="#231F20"/>
<path d="M227.662 327.205C219.378 326.163 220.127 345.798 228.093 344.326C230.363 343.896 231.384 341.858 231.747 339.774C232.337 336.445 232.269 327.771 227.662 327.205Z" fill="#231F20"/>
<path d="M280.157 327.205C271.873 326.163 272.622 345.798 280.588 344.326C282.857 343.896 283.879 341.858 284.242 339.774C284.832 336.445 284.764 327.771 280.157 327.205Z" fill="#231F20"/>
<path d="M255.759 336.966C255.464 333.909 250.63 333.886 250.925 336.966C251.402 341.903 251.742 346.818 251.855 351.777C251.878 353 252.673 358.662 251.924 359.477C251.629 359.795 248.542 359.998 247.975 360.225C245.115 361.335 246.363 366 249.268 364.868C253.058 363.373 256.236 364.369 256.735 359.206C257.439 351.981 256.463 344.168 255.759 336.989V336.966Z" fill="#231F20"/>
<path d="M256.281 376.033C249.609 377.867 242.392 375.851 237.784 370.643C235.765 368.355 231.725 371.028 233.79 373.36C239.918 380.268 248.928 383.053 257.87 380.585C260.866 379.769 259.254 375.217 256.281 376.033Z" fill="#231F20"/>
<path d="M318.648 347.089C317.536 345.595 316.787 342.605 316.129 341.156C315.38 339.525 314.654 337.872 313.905 336.241C312.702 333.569 311.499 330.919 310.296 328.247C311.113 324.329 311.907 319.278 309.275 316.538C306.256 313.39 299.629 312.982 295.408 312.801C292.072 312.009 288.509 311.895 285.013 311.918C284.787 311.918 284.605 311.941 284.401 311.986C278.091 312.212 272.486 314.772 268.196 318.825C259.527 309.699 245.728 310.242 237.331 319.12C233.132 315.451 227.798 313.164 221.852 312.937C221.671 312.892 221.466 312.869 221.239 312.869C215.225 312.824 208.916 313.164 204.104 316.81C200.042 318.848 195.435 321.656 194.731 325.869C194.459 327.545 194.618 329.356 195.004 331.191C188.422 339.253 182.294 347.633 176.666 356.375C175.327 358.458 178.663 360.406 180.002 358.322C185.063 350.464 190.533 342.9 196.388 335.607C196.638 336.241 196.887 336.853 197.137 337.464C198.998 349.671 208.871 359.953 221.444 360.882C234.743 361.855 247.453 352.276 246.613 338.325C246.25 332.391 244.071 326.911 240.599 322.562C247.18 315.066 258.188 315.338 264.951 322.449C261.864 326.661 259.935 331.825 259.595 337.374C258.755 351.324 271.464 360.882 284.764 359.93C297.677 359.002 307.732 348.176 309.207 335.562C309.207 335.494 309.207 335.403 309.207 335.313C309.888 336.83 310.568 338.325 311.249 339.842C312.566 342.786 313.859 348.222 316.31 350.328C317.445 351.302 319.034 350.894 319.533 349.467C319.533 349.422 319.579 349.354 319.579 349.309C319.896 348.403 319.352 347.52 318.58 347.089H318.648ZM241.824 338.325C242.528 349.762 232.201 356.918 221.489 356.058C213.455 355.424 206.919 349.898 203.741 342.809C203.741 342.56 203.673 342.333 203.56 342.084C203.356 341.654 203.151 341.178 202.924 340.725C202.425 339.253 202.062 337.736 201.858 336.173C201.199 330.964 202.312 325.008 206.261 321.249C209.415 318.259 213.841 317.738 218.085 317.67C218.38 317.784 218.698 317.829 219.061 317.806C231.225 316.923 241.098 326.322 241.824 338.347V338.325ZM304.418 335.199C303.147 345.232 295.204 354.269 284.787 355.084C274.052 355.944 263.748 348.788 264.451 337.351C265.178 325.325 275.05 315.927 287.215 316.81C287.601 316.832 287.918 316.81 288.191 316.674C292.435 316.742 296.86 317.263 300.015 320.252C303.964 324.012 305.076 329.968 304.418 335.177V335.199Z" fill="#231F20"/>
</g>
</svg>
