<svg width="66" height="66" viewBox="0 0 66 66" fill="none" xmlns="http://www.w3.org/2000/svg">
<path d="M3 33C3 36.9397 3.77597 40.8407 5.28361 44.4805C6.79125 48.1203 9.00104 51.4274 11.7868 54.2132C14.5726 56.999 17.8797 59.2087 21.5195 60.7164C25.1593 62.224 29.0603 63 33 63C36.9397 63 40.8407 62.224 44.4805 60.7164C48.1203 59.2087 51.4274 56.999 54.2132 54.2132C56.999 51.4274 59.2087 48.1203 60.7164 44.4805C62.224 40.8407 63 36.9397 63 33C63 29.0603 62.224 25.1593 60.7164 21.5195C59.2087 17.8797 56.999 14.5726 54.2132 11.7868C51.4274 9.00104 48.1203 6.79126 44.4805 5.28361C40.8407 3.77597 36.9397 3 33 3C29.0603 3 25.1593 3.77597 21.5195 5.28361C17.8797 6.79126 14.5726 9.00104 11.7868 11.7868C9.00104 14.5726 6.79125 17.8797 5.28361 21.5195C3.77597 25.1593 3 29.0603 3 33Z" stroke="white" stroke-width="5" stroke-linecap="round" stroke-linejoin="round"/>
<path d="M26.334 33C26.334 34.7682 27.0364 36.4638 28.2866 37.7141C29.5368 38.9643 31.2325 39.6667 33.0007 39.6667M26.334 33C26.334 31.2319 27.0364 29.5362 28.2866 28.286C29.5368 27.0358 31.2325 26.3334 33.0007 26.3334C34.7688 26.3334 36.4645 27.0358 37.7147 28.286C38.9649 29.5362 39.6673 31.2319 39.6673 33M26.334 33L3.83398 26.3334M33.0007 39.6667C34.7688 39.6667 36.4645 38.9643 37.7147 37.7141C38.9649 36.4638 39.6673 34.7682 39.6673 33M33.0007 39.6667V63M39.6673 33L62.1673 26.3334" stroke="white" stroke-width="5" stroke-linecap="round" stroke-linejoin="round"/>
</svg>
