<svg width="21" height="29" viewBox="0 0 21 29" fill="none" xmlns="http://www.w3.org/2000/svg">
<path d="M10.68 20.234C9.924 20.234 9.246 20.048 8.646 19.676C8.046 19.304 7.572 18.794 7.224 18.146C6.888 17.498 6.72 16.772 6.72 15.968C6.72 15.104 6.882 14.354 7.206 13.718C7.53 13.07 7.992 12.572 8.592 12.224C9.192 11.876 9.888 11.702 10.68 11.702C11.52 11.702 12.204 11.906 12.732 12.314C13.272 12.71 13.542 13.226 13.542 13.862C13.542 14.33 13.392 14.714 13.092 15.014C12.792 15.302 12.408 15.446 11.94 15.446C11.832 15.446 11.754 15.434 11.706 15.41C11.658 15.386 11.634 15.344 11.634 15.284C11.634 15.248 11.67 15.17 11.742 15.05C11.826 14.93 11.898 14.786 11.958 14.618C12.018 14.438 12.048 14.21 12.048 13.934C12.048 13.502 11.904 13.166 11.616 12.926C11.34 12.674 10.968 12.548 10.5 12.548C9.876 12.548 9.372 12.854 8.988 13.466C8.616 14.066 8.43 14.864 8.43 15.86C8.43 16.868 8.652 17.666 9.096 18.254C9.552 18.842 10.164 19.136 10.932 19.136C11.328 19.136 11.7 19.07 12.048 18.938C12.396 18.806 12.744 18.596 13.092 18.308C13.116 18.284 13.164 18.272 13.236 18.272C13.332 18.272 13.422 18.326 13.506 18.434C13.602 18.53 13.65 18.632 13.65 18.74C13.65 18.824 13.638 18.866 13.614 18.866C13.23 19.31 12.78 19.652 12.264 19.892C11.76 20.12 11.232 20.234 10.68 20.234Z" fill="white"/>
<circle cx="10.5" cy="15.5" r="9.5" stroke="#FCF5E3" stroke-width="2"/>
</svg>
