<svg width="45" height="45" viewBox="0 0 45 45" fill="none" xmlns="http://www.w3.org/2000/svg">
<g opacity="0.8">
<path d="M18.5467 22.6368C18.5467 20.3749 20.3809 18.5408 22.6441 18.5408C24.9073 18.5408 26.7425 20.3749 26.7425 22.6368C26.7425 24.8986 24.9073 26.7327 22.6441 26.7327C20.3809 26.7327 18.5467 24.8986 18.5467 22.6368ZM16.3312 22.6368C16.3312 26.1213 19.1575 28.9459 22.6441 28.9459C26.1308 28.9459 28.957 26.1213 28.957 22.6368C28.957 19.1522 26.1308 16.3276 22.6441 16.3276C19.1575 16.3276 16.3312 19.1522 16.3312 22.6368ZM27.7316 16.0775C27.7315 16.3691 27.8179 16.6542 27.98 16.8967C28.142 17.1393 28.3723 17.3283 28.6418 17.44C28.9114 17.5517 29.208 17.581 29.4942 17.5243C29.7804 17.4675 30.0433 17.3272 30.2497 17.1211C30.4561 16.9149 30.5967 16.6523 30.6538 16.3663C30.7108 16.0803 30.6817 15.7838 30.5702 15.5144C30.4586 15.2449 30.2696 15.0146 30.0271 14.8525C29.7845 14.6904 29.4993 14.6038 29.2075 14.6037H29.2069C28.8158 14.6038 28.4408 14.7592 28.1642 15.0355C27.8875 15.3118 27.732 15.6866 27.7316 16.0775ZM17.6773 32.6379C16.4787 32.5834 15.8272 32.3838 15.3942 32.2152C14.8202 31.9919 14.4107 31.7259 13.9801 31.2962C13.5495 30.8664 13.283 30.4575 13.0605 29.8839C12.8917 29.4514 12.6921 28.8001 12.6376 27.6022C12.578 26.3071 12.5661 25.918 12.5661 22.6369C12.5661 19.3557 12.579 18.9677 12.6376 17.6715C12.6922 16.4736 12.8933 15.8236 13.0605 15.3898C13.284 14.8162 13.5501 14.4069 13.9801 13.9765C14.4101 13.5462 14.8192 13.2798 15.3942 13.0575C15.827 12.8888 16.4787 12.6893 17.6773 12.6348C18.9732 12.5753 19.3625 12.5634 22.6441 12.5634C25.9258 12.5634 26.3155 12.5762 27.6124 12.6348C28.8111 12.6894 29.4615 12.8904 29.8955 13.0575C30.4695 13.2798 30.879 13.5468 31.3096 13.9765C31.7402 14.4063 32.0058 14.8162 32.2292 15.3898C32.398 15.8223 32.5977 16.4736 32.6522 17.6715C32.7118 18.9677 32.7237 19.3557 32.7237 22.6369C32.7237 25.918 32.7118 26.306 32.6522 27.6022C32.5976 28.8001 32.3969 29.4512 32.2292 29.8839C32.0058 30.4575 31.7396 30.8668 31.3096 31.2962C30.8796 31.7255 30.4695 31.9919 29.8955 32.2152C29.4628 32.3839 28.8111 32.5834 27.6124 32.6379C26.3165 32.6975 25.9273 32.7094 22.6441 32.7094C19.361 32.7094 18.9728 32.6975 17.6773 32.6379ZM17.5755 10.4244C16.2667 10.484 15.3724 10.6914 14.5914 10.9951C13.7825 11.3087 13.0978 11.7295 12.4135 12.4123C11.7293 13.095 11.3093 13.7804 10.9955 14.5888C10.6916 15.3699 10.484 16.2632 10.4244 17.5712C10.3638 18.8812 10.35 19.3001 10.35 22.6368C10.35 25.9735 10.3638 26.3923 10.4244 27.7024C10.484 29.0105 10.6916 29.9037 10.9955 30.6847C11.3093 31.4926 11.7294 32.1788 12.4135 32.8612C13.0977 33.5437 13.7825 33.9639 14.5914 34.2784C15.3739 34.5822 16.2667 34.7896 17.5755 34.8491C18.887 34.9087 19.3054 34.9235 22.6441 34.9235C25.9828 34.9235 26.4019 34.9097 27.7128 34.8491C29.0216 34.7896 29.9154 34.5822 30.6969 34.2784C31.5053 33.9639 32.1905 33.544 32.8747 32.8612C33.559 32.1785 33.9781 31.4926 34.2928 30.6847C34.5967 29.9037 34.8052 29.0104 34.8638 27.7024C34.9234 26.3913 34.9373 25.9735 34.9373 22.6368C34.9373 19.3001 34.9234 18.8812 34.8638 17.5712C34.8042 16.2631 34.5967 15.3694 34.2928 14.5888C33.9781 13.7809 33.5579 13.0961 32.8747 12.4123C32.1916 11.7285 31.5053 11.3087 30.6979 10.9951C29.9154 10.6914 29.0215 10.483 27.7137 10.4244C26.4029 10.3648 25.9838 10.35 22.6451 10.35C19.3064 10.35 18.887 10.3638 17.5755 10.4244Z" fill="white"/>
</g>
</svg>
