<svg width="62" height="60" viewBox="0 0 62 60" fill="none" xmlns="http://www.w3.org/2000/svg">
<g clip-path="url(#clip0_47_40)">
<path d="M60.46 27.15H58.95C57.64 17.46 51.48 9.39001 43 5.35001H53.6C54.1 6.76001 55.52 7.77001 57.13 7.77001C59.25 7.77001 60.86 6.05001 60.86 4.04001C60.86 2.03001 59.14 0.31001 57.13 0.31001C55.52 0.31001 54.1 1.32001 53.6 2.73001H34.73V1.32001C34.73 0.61001 34.12 0.0100098 33.42 0.0100098H28.27C27.56 0.0100098 26.96 0.62001 26.96 1.32001V2.73001H7.76999C7.26999 1.32001 5.84999 0.31001 4.23999 0.31001C2.21999 0.30001 0.499995 2.02001 0.499995 4.04001C0.499995 6.06001 2.21999 7.77001 4.22999 7.77001C5.84999 7.77001 7.25999 6.76001 7.75999 5.35001H18.76C10.3 9.39001 4.13999 17.46 2.82999 27.15H1.31999C0.609995 27.15 0.00999451 27.76 0.00999451 28.46V33.61C0.00999451 34.32 0.619995 34.92 1.31999 34.92H6.46999C7.17999 34.92 7.77999 34.31 7.77999 33.61V28.46C7.77999 27.75 7.16999 27.15 6.46999 27.15H5.45999C7.16999 16.05 15.95 7.27001 27.05 5.55001V6.56001C27.05 7.27001 27.66 7.87001 28.36 7.87001H33.51C34.22 7.87001 34.82 7.26001 34.82 6.56001V5.55001C45.92 7.27001 54.7 16.05 56.42 27.15H55.41C54.7 27.15 54.1 27.76 54.1 28.46V33.61C54.1 34.32 54.71 34.92 55.41 34.92H60.56C61.27 34.92 61.87 34.31 61.87 33.61V28.46C61.77 27.65 61.16 27.15 60.46 27.15ZM5.14999 32.2H2.62999V29.68C2.72999 29.68 5.35999 29.68 5.14999 29.68V32.2ZM57.03 2.93001C57.64 2.93001 58.24 3.43001 58.24 4.14001C58.24 4.75001 57.74 5.25001 57.03 5.25001C56.32 5.25001 55.82 4.75001 55.82 4.14001C55.92 3.43001 56.43 2.93001 57.03 2.93001ZM4.23999 5.25001C3.62999 5.25001 3.12999 4.75001 3.12999 4.04001C3.12999 3.43001 3.62999 2.93001 4.23999 2.93001C4.84999 2.93001 5.34999 3.43001 5.34999 4.04001C5.44999 4.75001 4.84999 5.25001 4.23999 5.25001ZM32.2 5.25001H29.68C29.68 5.15001 29.68 2.52001 29.68 2.63001H32.2V5.25001ZM59.25 32.2H56.63V29.68C56.73 29.68 59.36 29.68 59.25 29.68V32.2Z" fill="white"/>
<path d="M51.98 41.28C51.27 41.28 50.67 41.89 50.67 42.59C50.67 43.29 51.28 43.9 51.98 43.9C52.68 43.9 53.29 43.29 53.29 42.59C53.29 41.89 52.68 41.28 51.98 41.28Z" fill="white"/>
<path d="M43 19.38C42.29 19.38 41.69 19.99 41.69 20.69C41.69 21.39 42.3 22 43 22C43.7 22 44.31 21.39 44.31 20.69C44.31 19.99 43.7 19.38 43 19.38Z" fill="white"/>
<path d="M15.95 20.6901C15.24 20.6901 14.64 21.3001 14.64 22.0001C14.64 22.7001 15.25 23.3101 15.95 23.3101C16.65 23.3101 17.26 22.7001 17.26 22.0001C17.26 21.1901 16.65 20.6901 15.95 20.6901Z" fill="white"/>
<path d="M15.95 48.95C15.24 48.95 14.64 49.5599 14.64 50.2599C14.64 50.9599 15.25 51.57 15.95 51.57C16.65 51.57 17.26 50.9599 17.26 50.2599C17.26 49.5599 16.65 48.95 15.95 48.95Z" fill="white"/>
<path d="M30.89 36.34C33.11 36.34 34.93 34.52 34.93 32.3C34.93 30.48 33.72 28.97 32.2 28.46V20.69C32.2 19.98 31.59 19.38 30.89 19.38C30.19 19.38 29.58 19.99 29.58 20.69V28.46C27.97 28.96 26.85 30.48 26.85 32.3C26.85 34.52 28.67 36.34 30.89 36.34ZM30.89 30.89C31.7 30.89 32.4 31.6 32.4 32.4C32.4 33.2 31.69 33.91 30.89 33.91C30.09 33.91 29.38 33.2 29.38 32.4C29.38 31.49 30.09 30.89 30.89 30.89Z" fill="white"/>
<path d="M43.1 31.6901L34.22 16.1501C34.93 15.5401 35.43 14.6401 35.43 13.6301C35.43 11.3101 33.01 9.79006 30.89 10.7001C28.77 9.79006 26.35 11.3101 26.35 13.6301C26.35 14.6401 26.85 15.5501 27.56 16.1501L18.68 31.6901C18.48 31.9901 18.48 32.4001 18.58 32.7001L20.9 39.5601C19.49 40.1701 18.58 41.5801 18.58 43.0901C18.58 45.2101 20.3 46.9301 22.42 46.9301H22.72V57.9301C22.72 58.6401 23.33 59.2401 24.03 59.2401H37.96C38.67 59.2401 39.27 58.6301 39.27 57.9301V47.0301H39.57C41.69 47.0301 43.41 45.3101 43.41 43.1901C43.41 41.5801 42.4 40.1601 41.09 39.6601L43.41 32.8001C43.31 32.4001 43.31 31.9901 43.11 31.6901H43.1ZM30.58 16.1501C31.08 15.3401 30.48 14.3301 29.57 14.2301C29.27 14.2301 28.96 13.9301 28.96 13.6201C28.96 13.1201 29.67 12.8101 30.07 13.1201C30.57 13.5201 31.28 13.5201 31.79 13.1201C32.19 12.7201 32.9 13.0201 32.9 13.6201C32.9 13.9201 32.6 14.2301 32.29 14.2301C31.38 14.3301 30.78 15.3401 31.28 16.1501L40.57 32.4001L38.25 39.2601H23.51L21.19 32.4001L30.58 16.1501ZM25.23 47.0401H27.55V56.7301H25.23V47.0401ZM31.39 47.0401V56.7301H30.08V47.0401H31.39ZM36.54 56.7301H34.02V47.0401H36.54V56.7301ZM39.37 44.5201H22.41C21.7 44.5201 21.1 43.9101 21.1 43.2101C21.1 42.5101 21.71 41.9001 22.41 41.9001H39.37C40.08 41.9001 40.68 42.5101 40.68 43.2101C40.68 43.9101 40.07 44.5201 39.37 44.5201Z" fill="white"/>
<path d="M6.26 51.58C4.44 51.58 3.03 52.99 3.03 54.81C3.03 56.63 4.44 58.04 6.26 58.04C8.08 58.04 9.49 56.63 9.49 54.81C9.49 52.99 8.08 51.58 6.26 51.58ZM6.26 55.42C5.86 55.42 5.65 55.12 5.65 54.81C5.65 54.5 5.95 54.2 6.26 54.2C6.57 54.2 6.87 54.5 6.87 54.81C6.97 55.11 6.67 55.42 6.26 55.42Z" fill="white"/>
<path d="M11.41 38.66C9.58999 38.66 8.17999 40.07 8.17999 41.89C8.17999 43.71 9.58999 45.12 11.41 45.12C13.23 45.12 14.64 43.71 14.64 41.89C14.64 40.07 13.23 38.66 11.41 38.66ZM11.41 42.6C11.11 42.6 10.8 42.3 10.8 41.99C10.8 41.68 11.1 41.38 11.41 41.38C11.81 41.38 12.02 41.68 12.02 41.99C12.02 42.3 11.82 42.6 11.41 42.6Z" fill="white"/>
<path d="M57.13 48.95C55.01 48.95 53.29 50.67 53.29 52.79C53.29 54.91 55.01 56.63 57.13 56.63C59.25 56.63 60.97 54.91 60.97 52.79C60.97 50.67 59.25 48.95 57.13 48.95ZM57.13 54.0999C56.42 54.0999 55.82 53.49 55.82 52.79C55.82 52.09 56.43 51.4799 57.13 51.4799C57.83 51.4799 58.44 52.09 58.44 52.79C58.44 53.6 57.83 54.0999 57.13 54.0999Z" fill="white"/>
</g>
<defs>
<clipPath id="clip0_47_40">
<rect width="61.87" height="59.25" fill="white"/>
</clipPath>
</defs>
</svg>
