<svg width="61" height="65" viewBox="0 0 61 65" fill="none" xmlns="http://www.w3.org/2000/svg">
<g opacity="0.8" clip-path="url(#clip0_47_88)">
<path d="M50.0129 59.4724C49.2481 59.4724 48.6018 60.1271 48.6018 60.8785C48.6018 61.6298 49.2589 62.2845 50.0129 62.2845C50.7669 62.2845 51.424 61.6298 51.424 60.8785C51.3163 60.0091 50.7669 59.4724 50.0129 59.4724Z" fill="white"/>
<path d="M2.82218 45.6051C2.82218 44.8431 2.16511 44.1991 1.41109 44.1991C0.657072 44.1991 0 44.8538 0 45.6051C0 46.3565 0.657072 47.0112 1.41109 47.0112C2.16511 47.0112 2.82218 46.3565 2.82218 45.6051Z" fill="white"/>
<path d="M41.4278 55.8983C51.327 51.6695 58.2855 41.9238 58.2855 30.4393C58.2855 29.6772 57.6284 29.0332 56.8744 29.0332C56.1204 29.0332 55.4633 29.688 55.4633 30.4393C55.4633 40.185 49.9159 48.8574 41.1155 52.9682C40.5769 52.0988 39.8121 51.4548 38.7242 51.2401C38.7242 23.291 38.8319 24.8044 38.5087 24.2677C38.5087 24.1604 31.6579 11.9138 31.5502 11.8065C31.0116 10.8298 29.5898 10.8298 29.1589 11.8065C21.985 24.9117 22.0927 24.2677 22.0927 24.9117V51.2401C21.1125 51.4548 20.24 52.1095 19.7014 52.9682C11.2241 48.8466 5.56894 40.185 5.56894 30.4393C5.56894 29.6772 4.91187 29.0332 4.15785 29.0332C3.40384 29.0332 2.74677 29.688 2.74677 30.4393C2.74677 41.8164 9.70527 51.6695 19.6044 55.8983C20.0353 56.9824 21.0155 57.8518 22.2112 58.0664C22.976 61.9626 26.4552 65 30.5808 65C34.7063 65 38.1963 61.9626 38.7349 58.0664C40.0383 57.8518 41.0185 56.9824 41.4494 55.8983H41.4278ZM25.0118 51.1328V27.7345L29.1481 31.094V51.1328H25.0118ZM31.9703 31.094L36.1066 27.7345V51.1328H31.9703V31.094ZM30.5592 15.2733L35.665 24.4824L30.5592 28.7112L25.4535 24.5897L30.5592 15.2733ZM22.9437 53.9449H38.164C38.4872 53.9449 38.8211 54.2669 38.8211 54.5996C38.8211 54.9323 38.498 55.2543 38.164 55.2543H22.9437C22.6205 55.2543 22.2866 54.9323 22.2866 54.5996C22.1789 54.2776 22.502 53.9449 22.9437 53.9449ZM30.5592 62.1772C27.9525 62.1772 25.7766 60.4492 25.2273 58.0557H35.9882C35.3311 60.4384 33.166 62.1772 30.5485 62.1772H30.5592Z" fill="white"/>
<path d="M32.7244 5.63486C33.3814 5.63486 34.0277 5.09821 34.1355 4.33615C34.2432 3.5741 33.5969 2.93011 32.8321 2.82278H32.7244C31.9596 2.71545 31.3133 3.35943 31.2056 4.12149C31.2056 4.88354 31.7442 5.63486 32.7244 5.63486Z" fill="white"/>
<path d="M36.5268 6.27885H36.6345C37.3993 6.49351 38.1533 5.84952 38.261 5.30213C38.4764 4.54007 38.0456 3.78875 37.2808 3.68142H37.1731C36.4083 3.46676 35.6543 3.89609 35.5465 4.65814C35.3311 5.31286 35.762 6.06418 36.5268 6.27885Z" fill="white"/>
<path d="M28.3726 5.63496H28.4803C29.2451 5.52763 29.7837 4.98024 29.7837 4.12159C29.6759 3.35953 29.0189 2.82288 28.2648 2.82288H28.1571C27.3923 2.93021 26.8538 3.58493 26.8538 4.33625C26.9615 5.0983 27.6185 5.74229 28.3726 5.63496Z" fill="white"/>
<path d="M25.4427 4.98014C25.4427 4.21809 24.7856 3.5741 24.0316 3.5741C23.8162 3.5741 23.7085 3.68143 23.6007 3.68143C22.836 3.89609 22.4051 4.65815 22.6205 5.30213C23.0514 6.92284 25.4427 6.60085 25.4427 4.98014Z" fill="white"/>
<path d="M40.4476 7.58829C40.5553 7.58829 40.7708 7.69562 41.1047 7.69562C41.6433 7.69562 42.1926 7.37362 42.4081 6.82623C42.7312 6.17151 42.4081 5.31286 41.6433 4.98013C41.6433 4.98013 41.5356 4.98013 41.5356 4.8728C40.7708 4.5508 40.0167 4.8728 39.6828 5.63485C39.4674 6.50424 39.7905 7.25556 40.4476 7.58829Z" fill="white"/>
<path d="M44.1423 9.53102C45.2302 10.1857 46.4259 9.53102 46.4259 8.44697C46.4259 8.01764 46.2105 7.57758 45.7688 7.25559C45.5534 7.14826 45.338 6.93359 44.8963 6.93359C43.4852 7.04093 42.9359 8.7797 44.1315 9.53102H44.1423Z" fill="white"/>
<path d="M54.9032 17.1194C54.5801 16.4646 53.7076 16.25 53.0505 16.5827C52.3934 16.9047 52.178 17.7741 52.5119 18.4288L52.6196 18.5361C52.9428 19.1909 53.8153 19.4055 54.4723 19.0728C55.0109 18.8581 55.3449 17.9887 54.9032 17.1194Z" fill="white"/>
<path d="M55.8834 23.1837C56.6482 22.969 56.9714 22.207 56.7559 21.4556V21.3483C56.3251 20.1569 54.6878 20.0496 54.2569 21.241C53.9338 21.8957 54.2569 22.325 54.2569 22.4324C54.3646 23.0871 55.7757 23.3017 55.8834 23.1944V23.1837Z" fill="white"/>
<path d="M20.4447 7.69572C21.1017 7.48106 21.4249 6.93367 21.4249 6.39701C21.4249 5.63496 20.7678 4.99097 20.0138 4.99097C19.6907 4.99097 19.5829 5.0983 19.3567 5.20563C18.6997 5.52762 18.3765 6.28968 18.5919 7.05173C18.9151 7.70646 19.6799 8.02845 20.4447 7.70646V7.69572Z" fill="white"/>
<path d="M50.2283 15.1659C50.4437 15.4879 50.8854 15.7026 51.3162 15.7026C52.4042 15.7026 53.169 14.4039 52.4042 13.4272L52.2965 13.3198C51.8656 12.6651 50.8854 12.5578 50.336 13.1052C49.7974 13.5345 49.679 14.4039 50.2283 15.1659Z" fill="white"/>
<path d="M47.4061 12.1284C47.4061 12.1284 47.7293 12.5577 48.3864 12.5577C49.582 12.5577 50.2391 11.0444 49.3666 10.175L49.2589 10.0677C48.3864 9.19827 46.8676 9.96032 46.9753 11.1517C46.9753 11.4737 47.083 11.8064 47.4061 12.1284Z" fill="white"/>
<path d="M55.668 27.187C56.6482 28.0564 58.1671 27.187 57.9516 25.781C57.8439 25.0189 57.0791 24.4823 56.3251 24.697C55.0217 24.8043 54.8063 26.425 55.668 27.187Z" fill="white"/>
<path d="M13.5939 12.2466C13.5939 12.175 13.5939 12.175 13.5939 12.2466C14.5741 11.2698 14.0247 9.75647 12.7214 9.75647C12.3982 9.75647 12.0643 9.8638 11.7411 10.0785L11.6334 10.1858C11.0948 10.7225 11.0948 11.5918 11.5257 12.1392C12.0643 12.6759 12.9368 12.794 13.5939 12.2466Z" fill="white"/>
<path d="M4.78261 24.697C4.01782 24.5896 3.26381 25.019 3.15609 25.781V25.8884C3.04837 26.7577 3.69467 27.5091 4.56718 27.5091C5.33197 27.5091 5.97827 26.9724 5.97827 25.9957C5.97827 25.459 5.43968 24.8043 4.78261 24.697Z" fill="white"/>
<path d="M8.81125 15.488C9.46833 15.9173 10.5563 15.5953 10.7717 15.2733C11.3103 14.5113 11.2026 13.6526 10.664 13.2125C10.0069 12.7832 9.14518 12.8906 8.70354 13.4272C8.70354 13.4272 8.70354 13.5345 8.59582 13.5345C8.16495 14.1893 8.27267 15.0479 8.81125 15.488Z" fill="white"/>
<path d="M6.95849 22.4216V22.3142C7.17392 21.5522 6.85077 20.8009 6.08598 20.5862C5.32119 20.3715 4.56718 20.6935 4.35174 21.4556V21.5629C4.13631 22.325 4.45946 23.0763 5.22425 23.3017C5.88132 23.6237 6.63534 23.1943 6.95849 22.4323V22.4216Z" fill="white"/>
<path d="M8.58505 18.6327C8.9082 17.978 8.69277 17.1193 8.04647 16.7866C7.3894 16.4646 6.52766 16.6793 6.19374 17.3233C6.19374 17.3233 6.19374 17.4306 6.08603 17.4306C5.76288 18.0853 5.97831 18.944 6.62461 19.2767C7.28168 19.5987 8.25113 19.384 8.58505 18.622V18.6327Z" fill="white"/>
<path d="M16.8469 9.63839L16.9546 9.53106C17.3855 9.3164 17.6117 8.87634 17.6117 8.33968C17.6117 7.25563 16.416 6.61164 15.4358 7.1483C14.5633 7.68496 14.5633 8.55434 14.8972 9.10174C15.3281 9.86379 16.2006 10.0785 16.8577 9.63839H16.8469Z" fill="white"/>
<path d="M4.89032 52.5388C2.92988 52.5388 1.41107 54.0522 1.41107 56.0056C1.41107 57.9591 2.92988 59.4724 4.89032 59.4724C6.85077 59.4724 8.36957 57.9591 8.36957 56.0056C8.36957 54.0522 6.85077 52.5388 4.89032 52.5388ZM4.89032 56.6604C4.45946 56.6604 4.23325 56.3384 4.23325 56.0056C4.23325 55.6729 4.5564 55.3509 4.89032 55.3509C5.22424 55.3509 5.5474 55.6729 5.5474 56.0056C5.5474 56.3384 5.33196 56.6604 4.89032 56.6604Z" fill="white"/>
<path d="M56.2066 6.93362C58.1671 6.93362 59.6859 5.42024 59.6859 3.46681C59.6859 1.51338 58.1671 0 56.2066 0C54.2462 0 52.7274 1.51338 52.7274 3.46681C52.7274 5.42024 54.2462 6.93362 56.2066 6.93362ZM56.2066 2.81209C56.5298 2.81209 56.8637 3.13408 56.8637 3.46681C56.8637 3.79954 56.5405 4.12153 56.2066 4.12153C55.8727 4.12153 55.5495 3.90687 55.5495 3.46681C55.5495 3.14482 55.8727 2.81209 56.2066 2.81209Z" fill="white"/>
<path d="M4.24405 9.74575C6.52765 9.74575 8.38037 7.89965 8.38037 5.62422C8.38037 3.34879 6.52765 1.50269 4.24405 1.50269C1.96046 1.50269 0.107727 3.35952 0.107727 5.63495C0.107727 7.91038 1.96046 9.75648 4.24405 9.75648V9.74575ZM4.24405 4.21817C5.00884 4.21817 5.65514 4.8729 5.65514 5.62422C5.65514 6.37554 4.99807 7.03026 4.24405 7.03026C3.49003 7.03026 2.83296 6.37554 2.83296 5.62422C2.83296 4.75483 3.49003 4.21817 4.24405 4.21817Z" fill="white"/>
<path d="M56.8637 47.022C54.5801 47.022 52.7274 48.8681 52.7274 51.1435C52.7274 53.4189 54.5801 55.265 56.8637 55.265C59.1473 55.265 61 53.4189 61 51.1435C61.1077 48.8681 59.1473 47.022 56.8637 47.022ZM56.8637 52.5495C56.0989 52.5495 55.4526 51.8948 55.4526 51.1435C55.4526 50.3922 56.1097 49.7375 56.8637 49.7375C57.6177 49.7375 58.2748 50.3922 58.2748 51.1435C58.2748 51.8948 57.6177 52.5495 56.8637 52.5495Z" fill="white"/>
<path d="M41.751 14.6293C40.9862 14.6293 40.3399 15.284 40.3399 16.0353C40.3399 16.7866 40.997 17.4414 41.751 17.4414H44.3577C45.1225 17.4414 45.7688 16.7866 45.7688 16.0353C45.7688 15.284 45.1118 14.6293 44.3577 14.6293H41.751Z" fill="white"/>
<path d="M39.5751 21.3376L40.9862 22.0996C41.6433 22.4216 42.505 22.207 42.9466 21.563C43.2698 20.9082 43.1621 20.0496 42.4081 19.6095L40.997 18.8475C40.3399 18.4181 39.4782 18.6328 39.0365 19.3841C38.7134 20.1462 38.9288 21.0048 39.5751 21.3376Z" fill="white"/>
<path d="M40.9862 13.1052L42.3973 12.3432C43.0544 11.9138 43.2698 11.1518 42.9359 10.3897C42.6127 9.73502 41.7402 9.52036 40.9754 9.85308L39.5643 10.6151C38.9073 11.0445 38.6918 11.8065 39.0258 12.5686C39.4566 13.2233 40.3291 13.438 40.9862 13.1052Z" fill="white"/>
<path d="M20.7678 16.0353C20.7678 15.2733 20.1107 14.6293 19.3567 14.6293H16.75C15.9852 14.6293 15.3389 15.284 15.3389 16.0353C15.3389 16.7866 15.9959 17.4414 16.75 17.4414H19.3567C20.1215 17.4414 20.7678 16.7866 20.7678 16.0353Z" fill="white"/>
<path d="M20.2184 22.0995L21.6295 21.3375C22.2866 20.9082 22.502 20.1461 22.1681 19.384C21.845 18.622 20.9725 18.5147 20.2077 18.8474L18.7966 19.6094C18.1395 19.9314 17.9241 20.8008 18.258 21.5629C18.6889 22.3249 19.5614 22.5396 20.2184 22.0995Z" fill="white"/>
<path d="M18.8074 12.2465L20.2185 13.0085C20.8755 13.4379 21.7373 13.2232 22.1789 12.4719C22.5021 11.8172 22.3943 10.9585 21.6403 10.5185L20.2292 9.7564C19.5722 9.32707 18.7104 9.64907 18.3765 10.2931C17.9456 11.0551 18.1611 11.9138 18.8074 12.2465Z" fill="white"/>
</g>
<defs>
<clipPath id="clip0_47_88">
<rect width="61" height="65" fill="white"/>
</clipPath>
</defs>
</svg>
