<svg width="60" height="60" viewBox="0 0 60 60" fill="none" xmlns="http://www.w3.org/2000/svg">
<g opacity="0.8" clip-path="url(#clip0_47_71)">
<path d="M50.59 8.70994C38.98 -2.90006 20.31 -2.90006 8.69999 8.70994C-2.91001 20.3199 -2.91001 38.9899 8.69999 50.5999C14.25 56.1499 21.72 59.2799 29.59 59.2799H57.95C58.66 59.2799 59.26 58.6699 59.26 57.9699C59.26 57.2699 58.65 56.6599 57.95 56.6599H41.8C45.03 55.2499 48.06 53.1299 50.58 50.5999C62.19 38.9899 62.19 20.2199 50.58 8.70994H50.59ZM29.7 56.6499C14.76 56.6499 2.64999 44.5399 2.64999 29.5999C2.64999 14.6599 14.76 2.54994 29.7 2.54994C44.64 2.54994 56.75 14.6599 56.75 29.5999C56.75 44.5399 44.64 56.6499 29.7 56.6499Z" fill="white"/>
<path d="M29.7 6.47998C16.88 6.47998 6.48999 16.88 6.48999 29.59C6.48999 42.3 16.89 52.8 29.7 52.8C42.51 52.8 52.91 42.4 52.91 29.59C52.91 16.78 42.52 6.47998 29.7 6.47998ZM29.7 50.19C18.29 50.19 9.10999 40.9 9.10999 29.6C9.10999 18.3 18.4 9.00998 29.7 9.00998C41 9.00998 50.29 18.3 50.29 29.6C50.29 40.9 41.1 50.19 29.7 50.19Z" fill="white"/>
<path d="M29.7 24.45C26.87 24.45 24.55 26.77 24.55 29.6C24.55 32.43 26.87 34.75 29.7 34.75C32.53 34.75 34.85 32.43 34.85 29.6C34.85 26.77 32.53 24.45 29.7 24.45ZM29.7 32.1199C28.29 32.1199 27.18 31.01 27.18 29.6C27.18 28.19 28.29 27.08 29.7 27.08C31.11 27.08 32.22 28.29 32.22 29.6C32.22 31.01 31.11 32.1199 29.7 32.1199Z" fill="white"/>
<path d="M29.7 23.1399C32.93 23.1399 35.55 20.7199 36.06 17.9899C36.87 13.9499 33.74 10.3199 29.7 10.3199C25.66 10.3199 22.63 14.0499 23.34 17.9899C23.84 20.7099 26.47 23.1399 29.7 23.1399ZM26.27 18.4999C28.39 17.7899 30.81 17.7899 33.13 18.4999C32.42 19.8099 27.68 21.3299 26.27 18.4999ZM29.7 12.8499C31.52 12.8499 33.13 14.1599 33.54 15.9799C31.12 15.2699 28.49 15.2699 25.97 15.9799C26.27 14.1599 27.89 12.8499 29.7 12.8499Z" fill="white"/>
<path d="M29.7 36.0599C26.17 36.0599 23.24 38.9899 23.24 42.5199C23.24 46.0499 26.17 48.9799 29.7 48.9799C33.74 48.9799 36.77 45.2499 36.06 41.3099C35.56 38.4799 32.93 36.0599 29.7 36.0599ZM33.13 40.6999C30.91 41.4099 28.49 41.4099 26.27 40.6999C26.98 39.4899 31.62 37.9699 33.13 40.6999ZM29.7 46.3499C27.88 46.3499 26.27 45.0399 25.87 43.2199C28.39 43.9299 31.02 43.9299 33.44 43.2199C33.14 45.0399 31.52 46.3499 29.71 46.3499H29.7Z" fill="white"/>
<path d="M41.31 23.3399C38.38 23.9499 36.16 26.5699 36.16 29.6999C36.16 33.2299 39.09 36.1599 42.62 36.1599C46.15 36.1599 49.08 33.2299 49.08 29.6999C48.98 25.5599 45.34 22.5299 41.31 23.3399ZM40.81 26.1699C41.52 28.3899 41.52 30.8099 40.81 33.0299C39.6 32.4199 38.09 27.6799 40.81 26.1699ZM43.33 33.4399C44.04 31.0199 44.04 28.3899 43.33 25.8699C45.05 26.2699 46.46 27.7899 46.46 29.7099C46.46 31.4299 45.15 33.0399 43.33 33.4399Z" fill="white"/>
<path d="M23.24 29.5999C23.24 26.3699 20.82 23.7499 18.09 23.2399C14.15 22.5299 10.42 25.5599 10.42 29.5999C10.42 33.6399 14.15 36.7699 18.19 35.9599C21.02 35.3499 23.24 32.7299 23.24 29.5999ZM18.6 33.0299C17.89 30.8099 17.89 28.3899 18.6 26.1699C19.81 26.8799 21.43 31.6199 18.6 33.0299ZM12.95 29.5999C12.95 27.7799 14.26 26.1699 16.08 25.7599C15.37 28.1799 15.37 30.9099 16.08 33.3299C14.26 33.0299 12.95 31.4099 12.95 29.5999Z" fill="white"/>
<path d="M3.36 50.1899C1.54 50.1899 0.130005 51.5999 0.130005 53.4199C0.130005 55.2399 1.54 56.6499 3.36 56.6499C5.18001 56.6499 6.59 55.2399 6.59 53.4199C6.49001 51.5999 5.08 50.1899 3.36 50.1899ZM3.36 54.0299C2.96 54.0299 2.75 53.7299 2.75 53.4199C2.75 53.1099 3.05 52.8099 3.36 52.8099C3.67 52.8099 3.97001 53.1099 3.97001 53.4199C3.97001 53.8199 3.67 54.0299 3.36 54.0299Z" fill="white"/>
<path d="M55.44 7.6999C57.56 7.6999 59.28 5.9799 59.28 3.8699C59.28 1.7599 57.56 0.0198975 55.44 0.0198975C53.32 0.0198975 51.61 1.7399 51.61 3.8599C51.61 5.9799 53.33 7.6899 55.44 7.6899V7.6999ZM55.44 2.5499C56.15 2.5499 56.75 3.1599 56.75 3.8599C56.75 4.5599 56.14 5.1699 55.44 5.1699C54.74 5.1699 54.13 4.5599 54.13 3.8599C54.13 3.1599 54.74 2.5499 55.44 2.5499Z" fill="white"/>
<path d="M54.13 51.4999C54.13 52.2099 54.74 52.8099 55.44 52.8099C56.14 52.8099 56.75 52.1999 56.75 51.4999C56.75 50.7999 56.14 50.1899 55.44 50.1899C54.74 50.1899 54.13 50.7999 54.13 51.4999Z" fill="white"/>
<path d="M10.42 54.0199C9.70999 54.0199 9.10999 54.6299 9.10999 55.3299C9.10999 56.0299 9.71999 56.6399 10.42 56.6399C11.12 56.6399 11.73 56.0299 11.73 55.3299C11.73 54.6299 11.12 54.0199 10.42 54.0199Z" fill="white"/>
<path d="M1.44 10.32C2.15 10.32 2.75 9.70995 2.75 9.00995C2.75 8.30995 2.14 7.69995 1.44 7.69995C0.740005 7.69995 0.130005 8.30995 0.130005 9.00995C0.130005 9.70995 0.630005 10.32 1.44 10.32Z" fill="white"/>
<path d="M9.10999 3.85997C9.81999 3.85997 10.42 3.24997 10.42 2.54997C10.42 1.84997 9.80999 1.33997 9.10999 1.33997C8.40999 1.33997 7.79999 1.94997 7.79999 2.64997C7.79999 3.34997 8.40999 3.85997 9.10999 3.85997Z" fill="white"/>
<path d="M47.77 3.85997C48.48 3.85997 49.08 3.24997 49.08 2.54997C49.08 1.84997 48.47 1.33997 47.77 1.33997C47.07 1.33997 46.46 1.94997 46.46 2.64997C46.46 3.25997 47.07 3.85997 47.77 3.85997Z" fill="white"/>
</g>
<defs>
<clipPath id="clip0_47_71">
<rect width="59.3" height="59.27" fill="white"/>
</clipPath>
</defs>
</svg>
