<svg width="45" height="45" viewBox="0 0 45 45" fill="none" xmlns="http://www.w3.org/2000/svg">
<g opacity="0.8">
<path fill-rule="evenodd" clip-rule="evenodd" d="M34.9383 22.6441C34.9383 29.434 29.434 34.9383 22.6441 34.9383C15.8543 34.9383 10.35 29.434 10.35 22.6441C10.35 15.8543 15.8543 10.35 22.6441 10.35C29.434 10.35 34.9383 15.8543 34.9383 22.6441ZM23.8222 18.8717C21.7102 19.784 15.6203 22.3749 15.6203 22.3749C14.177 22.9587 15.0218 23.5061 15.0218 23.5061C15.0218 23.5061 16.2539 23.944 17.31 24.2724C18.366 24.6008 18.9292 24.2359 18.9292 24.2359C18.9292 24.2359 21.3934 22.5573 23.8926 20.7692C25.6527 19.5286 25.2303 20.5503 24.8079 20.9882C23.8926 21.937 22.379 23.4331 21.1117 24.6373C20.5485 25.1482 20.8301 25.5861 21.0765 25.805C21.7932 26.4336 23.4811 27.5769 24.2474 28.0959C24.4598 28.2398 24.6014 28.3357 24.6319 28.3594C24.8079 28.5054 25.7936 29.1622 26.392 29.0163C26.9904 28.8703 27.0608 28.031 27.0608 28.031C27.0608 28.031 27.5184 25.0387 27.9409 22.3019C28.0191 21.7645 28.0973 21.2384 28.1703 20.7479C28.3599 19.4729 28.5139 18.4379 28.5393 18.0689C28.6449 16.8282 27.3776 17.3391 27.3776 17.3391C27.3776 17.3391 24.6319 18.5068 23.8222 18.8717Z" fill="white"/>
</g>
</svg>
