<svg width="45" height="45" viewBox="0 0 45 45" fill="none" xmlns="http://www.w3.org/2000/svg">
<g opacity="0.8">
<path d="M33.088 16.0327C32.4077 16.3254 31.6925 16.5293 30.9601 16.6393C31.3025 16.5805 31.8064 15.9642 32.0069 15.7147C32.3116 15.3383 32.5439 14.9087 32.6918 14.4477C32.6918 14.4134 32.726 14.3645 32.6918 14.34C32.6745 14.3306 32.6552 14.3257 32.6355 14.3257C32.6159 14.3257 32.5965 14.3306 32.5793 14.34C31.7839 14.7707 30.9375 15.0995 30.0599 15.3184C30.0294 15.3278 29.9968 15.3286 29.9658 15.3209C29.9347 15.3131 29.9064 15.297 29.8838 15.2744C29.8155 15.1931 29.742 15.1163 29.6637 15.0445C29.3058 14.7238 28.8997 14.4613 28.4603 14.2667C27.8672 14.0233 27.2265 13.9179 26.5867 13.9585C25.9658 13.9977 25.3597 14.1642 24.806 14.4477C24.2607 14.7465 23.7815 15.1525 23.3971 15.6413C22.9928 16.1444 22.7009 16.7282 22.541 17.3535C22.4092 17.9483 22.3943 18.563 22.497 19.1635C22.497 19.2662 22.497 19.2809 22.409 19.2662C18.921 18.7526 16.0592 17.5149 13.7209 14.8586C13.6182 14.7412 13.5644 14.7412 13.4812 14.8586C12.4637 16.4044 12.9578 18.8504 14.2297 20.0587C14.4009 20.2201 14.577 20.3767 14.7629 20.5234C14.1797 20.482 13.6108 20.324 13.0898 20.0587C12.992 19.9951 12.9382 20.0294 12.9333 20.1468C12.9194 20.3095 12.9194 20.4732 12.9333 20.636C13.0354 21.416 13.3428 22.155 13.8241 22.7773C14.3055 23.3996 14.9434 23.8828 15.6728 24.1777C15.8506 24.2539 16.0359 24.3113 16.2256 24.3489C15.6857 24.4552 15.132 24.4717 14.5868 24.3978C14.4694 24.3734 14.4253 24.437 14.4694 24.5495C15.1885 26.5063 16.749 27.1031 17.8937 27.4357C18.0503 27.4602 18.2068 27.4602 18.3829 27.4993C18.3829 27.4993 18.3829 27.4993 18.3536 27.5287C18.016 28.1451 16.6512 28.5609 16.025 28.7761C14.8821 29.1867 13.6635 29.3436 12.4539 29.236C12.2631 29.2066 12.2191 29.2115 12.1702 29.236C12.1212 29.2604 12.1702 29.3142 12.224 29.3632C12.4686 29.5246 12.7132 29.6665 12.9676 29.8034C13.7248 30.2165 14.5255 30.5446 15.3548 30.7818C19.6499 31.9657 24.4831 31.0949 27.7069 27.8907C30.2409 25.3762 31.1313 21.9079 31.1313 18.4346C31.1313 18.3025 31.2927 18.2242 31.3857 18.1557C32.0267 17.6562 32.5919 17.0663 33.0636 16.4044C33.1453 16.3058 33.1871 16.1802 33.181 16.0522C33.181 15.9788 33.181 15.9935 33.088 16.0327Z" fill="white"/>
</g>
</svg>
