<svg width="38" height="30" viewBox="0 0 38 30" fill="none" xmlns="http://www.w3.org/2000/svg">
<path d="M25 23.6802H16.83L19.41 21.0902L18 19.6802L13 24.6802L18 29.6802L19.41 28.2702L16.83 25.6802H25V23.6802Z" fill="#4F37C1"/>
<path d="M29.091 27.6802H28.4974V25.3321H29.091C30.7856 25.3365 32.4154 24.6886 33.6356 23.5257C34.8558 22.3627 35.5706 20.7759 35.6288 19.101C35.6869 17.4262 35.0839 15.7946 33.9472 14.5516C32.8105 13.3087 31.2295 12.5518 29.5385 12.4412L28.5449 12.3755L28.438 11.3963C28.1822 9.09769 27.0777 6.97324 25.3361 5.43008C23.5945 3.88693 21.3384 3.03359 19 3.03359C16.6616 3.03359 14.4055 3.88693 12.6639 5.43008C10.9223 6.97324 9.81778 9.09769 9.56198 11.3963L9.45513 12.3755L8.46147 12.4424C6.77395 12.5574 5.19753 13.316 4.06467 14.5582C2.93182 15.8004 2.33107 17.4292 2.38912 19.101C2.44717 20.7729 3.15948 22.357 4.37583 23.5195C5.59219 24.682 7.21751 25.3319 8.90903 25.3321H9.50262V27.6802H8.90903C6.68351 27.6826 4.53783 26.8603 2.89513 25.3755C1.25243 23.8906 0.231953 21.8509 0.0349518 19.6586C-0.16205 17.4664 0.47872 15.2807 1.8309 13.5326C3.18307 11.7845 5.1485 10.6009 7.33959 10.2152C7.85834 7.53276 9.30651 5.11306 11.4348 3.37269C13.5631 1.63232 16.2384 0.680176 19 0.680176C21.7616 0.680176 24.4369 1.63232 26.5652 3.37269C28.6935 5.11306 30.1417 7.53276 30.6604 10.2152C32.8515 10.6009 34.8169 11.7845 36.1691 13.5326C37.5213 15.2807 38.1621 17.4664 37.965 19.6586C37.768 21.8509 36.7476 23.8906 35.1049 25.3755C33.4622 26.8603 31.3165 27.6826 29.091 27.6802Z" fill="#4F37C1"/>
</svg>
