<svg width="20" height="20" viewBox="0 0 20 20" fill="none" xmlns="http://www.w3.org/2000/svg">
<g clip-path="url(#clip0_564_330)">
<path d="M16.9307 3.74339C15.6557 3.16839 14.2891 2.74339 12.8599 2.50173C12.8472 2.49928 12.834 2.50086 12.8222 2.50623C12.8104 2.51161 12.8006 2.52052 12.7941 2.53173C12.6191 2.83923 12.4241 3.24006 12.2874 3.55673C10.7717 3.33026 9.23067 3.33026 7.71491 3.55673C7.56269 3.20578 7.39104 2.86358 7.20075 2.53173C7.19429 2.52038 7.18454 2.51127 7.17277 2.50561C7.16101 2.49995 7.1478 2.49802 7.13491 2.50006C5.70658 2.74173 4.33991 3.16673 3.06408 3.74256C3.0531 3.74716 3.0438 3.75501 3.03741 3.76506C0.444078 7.57756 -0.266755 11.2959 0.0824112 14.9676C0.0833828 14.9766 0.0861741 14.9853 0.0906153 14.9931C0.0950564 15.001 0.101054 15.0079 0.108244 15.0134C1.6219 16.1154 3.31019 16.9549 5.10241 17.4967C5.1149 17.5006 5.12827 17.5006 5.14075 17.4967C5.15324 17.4928 5.16427 17.4853 5.17241 17.4751C5.55741 16.9584 5.90074 16.4126 6.19408 15.8392C6.21158 15.8059 6.19491 15.7659 6.15991 15.7526C5.62158 15.5498 5.09998 15.3052 4.59991 15.0209C4.59093 15.0158 4.58335 15.0085 4.57787 14.9997C4.5724 14.9909 4.56918 14.9809 4.56852 14.9706C4.56786 14.9603 4.56977 14.95 4.57409 14.9405C4.5784 14.9311 4.58499 14.923 4.59324 14.9167C4.69824 14.8392 4.80324 14.7584 4.90324 14.6776C4.91225 14.6703 4.92309 14.6657 4.93456 14.6642C4.94604 14.6627 4.9577 14.6645 4.96824 14.6692C8.24074 16.1392 11.7849 16.1392 15.0191 14.6692C15.0297 14.6642 15.0414 14.6622 15.0531 14.6635C15.0647 14.6649 15.0757 14.6694 15.0849 14.6767C15.1849 14.7584 15.2891 14.8392 15.3949 14.9167C15.4032 14.9228 15.4099 14.9309 15.4144 14.9402C15.4188 14.9496 15.4209 14.9598 15.4204 14.9702C15.4199 14.9805 15.4169 14.9905 15.4116 14.9994C15.4062 15.0082 15.3988 15.0156 15.3899 15.0209C14.8916 15.3076 14.3732 15.5501 13.8291 15.7517C13.8207 15.7548 13.8131 15.7595 13.8067 15.7658C13.8004 15.772 13.7954 15.7795 13.7922 15.7877C13.789 15.796 13.7875 15.8049 13.788 15.8138C13.7885 15.8227 13.7908 15.8313 13.7949 15.8392C14.0949 16.4117 14.4382 16.9567 14.8157 17.4742C14.8236 17.4848 14.8345 17.4928 14.8471 17.497C14.8596 17.5011 14.8731 17.5013 14.8857 17.4976C16.681 16.9573 18.3721 16.1174 19.8874 15.0134C19.8948 15.0082 19.901 15.0015 19.9056 14.9938C19.9102 14.986 19.9131 14.9774 19.9141 14.9684C20.3307 10.7234 19.2157 7.03506 16.9566 3.76673C16.951 3.75611 16.9419 3.74783 16.9307 3.74339ZM6.68324 12.7317C5.69825 12.7317 4.88574 11.8409 4.88574 10.7484C4.88574 9.65506 5.68241 8.76506 6.68325 8.76506C7.69158 8.76506 8.49658 9.66256 8.48074 10.7484C8.48074 11.8417 7.68408 12.7317 6.68324 12.7317ZM13.3291 12.7317C12.3432 12.7317 11.5316 11.8409 11.5316 10.7484C11.5316 9.65506 12.3274 8.76506 13.3291 8.76506C14.3374 8.76506 15.1424 9.66256 15.1266 10.7484C15.1266 11.8417 14.3382 12.7317 13.3291 12.7317Z" fill="white"/>
</g>
<defs>
<clipPath id="clip0_564_330">
<rect width="20" height="20" fill="white" transform="translate(20 20) rotate(-180)"/>
</clipPath>
</defs>
</svg>
