<svg width="31" height="31" viewBox="0 0 31 31" fill="none" xmlns="http://www.w3.org/2000/svg">
<path d="M30.3467 7.85067L23.1543 0.659734C22.9451 0.450574 22.6967 0.284658 22.4234 0.17146C22.1501 0.0582622 21.8571 0 21.5613 0C21.2654 0 20.9725 0.0582622 20.6992 0.17146C20.4259 0.284658 20.1775 0.450574 19.9683 0.659734L0.659711 19.9643C0.241657 20.3896 0.0051308 20.9606 0 21.5569V28.7478C0 29.3451 0.237335 29.918 0.659793 30.3403C1.08225 30.7627 1.65523 31 2.25267 31H9.44513C10.0416 30.9949 10.6127 30.7584 11.0381 30.3404L30.3467 11.0359C30.7653 10.6115 31 10.0394 31 9.44329C31 8.84722 30.7653 8.2751 30.3467 7.85067ZM9.6704 28.973C9.61098 29.0336 9.53002 29.0683 9.44513 29.0695H2.25267C2.16732 29.0695 2.08547 29.0357 2.02512 28.9753C1.96477 28.915 1.93086 28.8331 1.93086 28.7478V21.5569C1.93207 21.472 1.96677 21.3911 2.0274 21.3317L16.4123 6.94979L24.0553 14.5912L9.6704 28.973ZM28.979 9.66851L25.423 13.2238L17.78 5.58239L21.336 2.02714C21.3647 1.99593 21.3995 1.97102 21.4383 1.95397C21.477 1.93693 21.5189 1.92812 21.5613 1.92812C21.6037 1.92812 21.6455 1.93693 21.6843 1.95397C21.7231 1.97102 21.7579 1.99593 21.7866 2.02714L28.979 9.21807C29.0102 9.2467 29.0352 9.28151 29.0522 9.32028C29.0692 9.35905 29.0781 9.40094 29.0781 9.44329C29.0781 9.48564 29.0692 9.52753 29.0522 9.5663C29.0352 9.60507 29.0102 9.63988 28.979 9.66851Z" fill="#F264B9"/>
</svg>
