<svg width="30" height="30" viewBox="0 0 30 30" fill="none" xmlns="http://www.w3.org/2000/svg">
<path d="M6.25 6.25C5.91848 6.25 5.60054 6.3817 5.36612 6.61612C5.1317 6.85054 5 7.16848 5 7.5C5 7.83152 5.1317 8.14946 5.36612 8.38388C5.60054 8.6183 5.91848 8.75 6.25 8.75H23.75C24.0815 8.75 24.3995 8.6183 24.6339 8.38388C24.8683 8.14946 25 7.83152 25 7.5C25 7.16848 24.8683 6.85054 24.6339 6.61612C24.3995 6.3817 24.0815 6.25 23.75 6.25H6.25ZM5.41667 0C3.98008 0 2.60233 0.570683 1.5865 1.5865C0.570683 2.60233 0 3.98008 0 5.41667V24.5833C0 26.0199 0.570683 27.3977 1.5865 28.4135C2.60233 29.4293 3.98008 30 5.41667 30H24.5833C26.0199 30 27.3977 29.4293 28.4135 28.4135C29.4293 27.3977 30 26.0199 30 24.5833V5.41667C30 3.98008 29.4293 2.60233 28.4135 1.5865C27.3977 0.570683 26.0199 0 24.5833 0H5.41667ZM2.5 5.41667C2.5 3.80667 3.80667 2.5 5.41667 2.5H24.5833C26.1933 2.5 27.5 3.80667 27.5 5.41667V24.5833C27.5 25.3569 27.1927 26.0987 26.6457 26.6457C26.0987 27.1927 25.3569 27.5 24.5833 27.5H5.41667C4.64312 27.5 3.90125 27.1927 3.35427 26.6457C2.80729 26.0987 2.5 25.3569 2.5 24.5833V5.41667Z" fill="#2EB580"/>
</svg>
