<svg width="35" height="33" viewBox="0 0 35 33" fill="none" xmlns="http://www.w3.org/2000/svg">
<path d="M17.6378 26.5434L17.1218 26.2326L16.6057 26.5434L8.30574 31.5434L8.29523 31.5498L8.28488 31.5563C8.08639 31.6827 7.91861 31.7171 7.7548 31.7035C7.5367 31.6853 7.37378 31.6181 7.23569 31.5107C7.06161 31.3753 6.9261 31.2076 6.82493 30.9947C6.76879 30.8766 6.73934 30.7205 6.79592 30.4758C6.79594 30.4757 6.79597 30.4756 6.79599 30.4755L8.99571 21.0267L9.1327 20.4383L8.67551 20.0433L1.3341 13.7007C1.13888 13.5231 1.05729 13.3619 1.02535 13.2135C0.981751 13.011 0.994657 12.8274 1.0619 12.6408C1.14353 12.4167 1.25318 12.2638 1.38026 12.1526C1.45833 12.0843 1.6181 11.9927 1.93853 11.9436L11.609 11.0962L12.2093 11.0436L12.4433 10.4883L16.1933 1.58829L16.1948 1.58462C16.2831 1.37283 16.3992 1.25077 16.5432 1.16865C16.7592 1.04547 16.948 1 17.1218 1C17.2974 1 17.4856 1.04574 17.6989 1.16784C17.8424 1.24998 17.9598 1.37302 18.0498 1.58723L18.0502 1.58829L21.8002 10.4883L22.0342 11.0436L22.6345 11.0962L32.305 11.9436C32.6254 11.9927 32.7852 12.0843 32.8633 12.1526C32.9905 12.2639 33.1003 12.4172 33.182 12.6417C33.2505 12.8303 33.2635 13.0142 33.2201 13.2155C33.1885 13.3626 33.1074 13.5226 32.9112 13.6992L25.568 20.0433L25.1108 20.4383L25.2478 21.0267L27.4474 30.4749C27.4474 30.475 27.4474 30.4752 27.4475 30.4753C27.5043 30.7221 27.4745 30.879 27.4186 30.9967C27.3176 31.2091 27.1828 31.3753 27.01 31.509L27.0078 31.5107C26.8697 31.6181 26.7068 31.6853 26.4887 31.7035C26.3249 31.7171 26.1571 31.6827 25.9586 31.5563L25.9483 31.5498L25.9378 31.5434L17.6378 26.5434Z" stroke="#F0864A" stroke-width="2"/>
</svg>
