<svg width="35" height="33" viewBox="0 0 35 33" fill="none" xmlns="http://www.w3.org/2000/svg">
<path d="M17.1218 27.4L8.82175 32.4C8.45509 32.6333 8.07175 32.7333 7.67175 32.7C7.27175 32.6667 6.92175 32.5333 6.62175 32.3C6.32175 32.0667 6.08842 31.7747 5.92175 31.424C5.75509 31.0733 5.72175 30.682 5.82175 30.25L8.02175 20.8L0.671752 14.45C0.338418 14.15 0.130418 13.808 0.0477516 13.424C-0.0349151 13.04 -0.0102485 12.6653 0.121751 12.3C0.255085 11.9333 0.455085 11.6333 0.721751 11.4C0.988418 11.1667 1.35508 11.0167 1.82175 10.95L11.5218 10.1L15.2718 1.2C15.4384 0.800001 15.6971 0.5 16.0478 0.3C16.3984 0.1 16.7564 0 17.1218 0C17.4884 0 17.8464 0.1 18.1958 0.3C18.5451 0.5 18.8038 0.800001 18.9718 1.2L22.7218 10.1L32.4218 10.95C32.8884 11.0167 33.2551 11.1667 33.5218 11.4C33.7884 11.6333 33.9884 11.9333 34.1218 12.3C34.2551 12.6667 34.2804 13.042 34.1978 13.426C34.1151 13.81 33.9064 14.1513 33.5718 14.45L26.2218 20.8L28.4218 30.25C28.5218 30.6833 28.4884 31.0753 28.3218 31.426C28.1551 31.7767 27.9218 32.068 27.6218 32.3C27.3218 32.5333 26.9718 32.6667 26.5718 32.7C26.1718 32.7333 25.7884 32.6333 25.4218 32.4L17.1218 27.4Z" fill="#F0864A"/>
</svg>
