<svg width="24" height="24" viewBox="0 0 24 24" fill="none" xmlns="http://www.w3.org/2000/svg">
<g clip-path="url(#clip0_4_76)">
<path d="M19.9922 4.73438C20.1849 4.73438 20.3697 4.81092 20.5059 4.94718C20.6422 5.08344 20.7188 5.26824 20.7188 5.46094V16.3594H3.28125V5.46094C3.28125 5.26824 3.3578 5.08344 3.49406 4.94718C3.63031 4.81092 3.81512 4.73438 4.00781 4.73438H19.9922ZM4.00781 3.28125C3.42972 3.28125 2.87531 3.5109 2.46654 3.91967C2.05777 4.32844 1.82812 4.88285 1.82812 5.46094V17.8125H22.1719V5.46094C22.1719 4.88285 21.9422 4.32844 21.5335 3.91967C21.1247 3.5109 20.5703 3.28125 19.9922 3.28125H4.00781ZM0.375 18.5391H23.625C23.625 19.1172 23.3954 19.6716 22.9866 20.0803C22.5778 20.4891 22.0234 20.7188 21.4453 20.7188H2.55469C1.9766 20.7188 1.42219 20.4891 1.01342 20.0803C0.604645 19.6716 0.375 19.1172 0.375 18.5391H0.375Z" fill="#2E6DFF"/>
</g>
<defs>
<clipPath id="clip0_4_76">
<rect width="23.25" height="23.25" fill="white" transform="translate(0.375 0.375)"/>
</clipPath>
</defs>
</svg>
