<svg width="29" height="29" viewBox="0 0 29 29" fill="none" xmlns="http://www.w3.org/2000/svg">
<rect x="6" y="3" width="19" height="22" fill="#343434"/>
<path d="M14.5553 9.63417C11.9128 9.63417 9.7563 11.7907 9.7563 14.4332C9.7563 17.0757 11.9128 19.2322 14.5553 19.2322C17.1979 19.2322 19.3544 17.0757 19.3544 14.4332C19.3544 11.7907 17.1979 9.63417 14.5553 9.63417ZM28.9488 14.4332C28.9488 12.4459 28.9668 10.4766 28.8552 8.49291C28.7436 6.1888 28.218 4.1439 26.5331 2.45902C24.8446 0.770542 22.8033 0.248517 20.4992 0.136912C18.5119 0.0253063 16.5426 0.0433072 14.5589 0.0433072C12.5716 0.0433072 10.6023 0.0253063 8.61864 0.136912C6.31453 0.248517 4.26964 0.774142 2.58476 2.45902C0.896274 4.1475 0.374249 6.1888 0.262644 8.49291C0.151039 10.4802 0.16904 12.4495 0.16904 14.4332C0.16904 16.4169 0.151039 18.3898 0.262644 20.3735C0.374249 22.6776 0.899875 24.7225 2.58476 26.4074C4.27324 28.0958 6.31453 28.6179 8.61864 28.7295C10.6059 28.8411 12.5752 28.8231 14.5589 28.8231C16.5462 28.8231 18.5155 28.8411 20.4992 28.7295C22.8033 28.6179 24.8482 28.0922 26.5331 26.4074C28.2216 24.7189 28.7436 22.6776 28.8552 20.3735C28.9704 18.3898 28.9488 16.4205 28.9488 14.4332ZM14.5553 21.8171C10.4691 21.8171 7.17137 18.5194 7.17137 14.4332C7.17137 10.347 10.4691 7.04924 14.5553 7.04924C18.6415 7.04924 21.9393 10.347 21.9393 14.4332C21.9393 18.5194 18.6415 21.8171 14.5553 21.8171ZM22.2417 8.47131C21.2877 8.47131 20.5172 7.70087 20.5172 6.74683C20.5172 5.79278 21.2877 5.02235 22.2417 5.02235C23.1957 5.02235 23.9662 5.79278 23.9662 6.74683C23.9665 6.97337 23.9221 7.19774 23.8355 7.40709C23.7489 7.61645 23.6219 7.80667 23.4617 7.96686C23.3015 8.12704 23.1113 8.25406 22.902 8.34062C22.6926 8.42718 22.4682 8.47159 22.2417 8.47131Z" fill="url(#paint0_linear_901_9)"/>
<defs>
<linearGradient id="paint0_linear_901_9" x1="14.5592" y1="0.0422363" x2="14.5592" y2="28.8242" gradientUnits="userSpaceOnUse">
<stop stop-color="#FCC64A"/>
<stop offset="1" stop-color="#EEBB48"/>
</linearGradient>
</defs>
</svg>
