<svg width="24" height="24" viewBox="0 0 24 24" fill="none" xmlns="http://www.w3.org/2000/svg">
<path d="M15 20H9M20 8.20001V13.8C20 14.9201 20.0002 15.4801 19.7822 15.908C19.5905 16.2843 19.2841 16.5902 18.9078 16.782C18.48 17 17.9203 17 16.8002 17H7.2002C6.08009 17 5.51962 17 5.0918 16.782C4.71547 16.5902 4.40973 16.2843 4.21799 15.908C4 15.4801 4 14.9201 4 13.8V8.20001C4 7.07991 4 6.51986 4.21799 6.09204C4.40973 5.71572 4.71547 5.40973 5.0918 5.21799C5.51962 5 6.08009 5 7.2002 5H16.8002C17.9203 5 18.48 5 18.9078 5.21799C19.2841 5.40973 19.5905 5.71572 19.7822 6.09204C20.0002 6.51986 20 7.07991 20 8.20001Z" stroke="#F7C04A" stroke-width="2" stroke-linecap="round" stroke-linejoin="round"/>
</svg>
