<svg width="29" height="29" viewBox="0 0 29 29" fill="none" xmlns="http://www.w3.org/2000/svg">
<rect y="0.224121" width="28.4174" height="28.4174" rx="7.10434" fill="url(#paint0_linear_901_13)"/>
<path d="M22.1025 9.63706C21.551 9.89022 20.9585 10.0613 20.3356 10.1386C20.9783 9.74023 21.4592 9.11325 21.6884 8.37465C21.0846 8.74618 20.4237 9.0077 19.7345 9.14783C19.2711 8.63525 18.6572 8.2955 17.9883 8.18133C17.3194 8.06717 16.6327 8.18497 16.0351 8.51646C15.4374 8.84794 14.962 9.37456 14.6829 10.0146C14.4037 10.6545 14.3364 11.3721 14.4912 12.0558C13.2677 11.9922 12.0708 11.6628 10.9781 11.0889C9.88548 10.5151 8.92151 9.7097 8.14879 8.72497C7.88458 9.1971 7.73266 9.74448 7.73266 10.3274C7.73236 10.8523 7.85712 11.369 8.09587 11.8319C8.33462 12.2948 8.67997 12.6894 9.10128 12.9809C8.61267 12.9648 8.13484 12.828 7.70756 12.582V12.6231C7.70751 13.3591 7.9533 14.0725 8.40322 14.6422C8.85314 15.2119 9.47948 15.6028 10.176 15.7486C9.7227 15.8757 9.24748 15.8944 8.78621 15.8034C8.98271 16.4367 9.36549 16.9905 9.88095 17.3873C10.3964 17.7841 11.0188 18.004 11.6608 18.0162C10.5709 18.9025 9.22473 19.3833 7.839 19.3812C7.59354 19.3813 7.34828 19.3664 7.10449 19.3367C8.51108 20.2736 10.1485 20.7708 11.8207 20.7688C17.4815 20.7688 20.5761 15.9122 20.5761 11.7C20.5761 11.5632 20.5728 11.425 20.5668 11.2881C21.1687 10.8372 21.6883 10.2788 22.1012 9.63911L22.1025 9.63706V9.63706Z" fill="#343434"/>
<defs>
<linearGradient id="paint0_linear_901_13" x1="14.2087" y1="0.224121" x2="14.2087" y2="28.6415" gradientUnits="userSpaceOnUse">
<stop stop-color="#F9C449"/>
<stop offset="1" stop-color="#EBB947"/>
</linearGradient>
</defs>
</svg>
